<svg xmlns="http://www.w3.org/2000/svg" xmlns:xlink="http://www.w3.org/1999/xlink" version="1.1" x="0px" y="0px" viewBox="0 0 100 100" enable-background="new 0 0 100 100" xml:space="preserve"><path d="M78.7,5H23.3h-5.6v3.4h-3.4c-0.8,0-1.4,0.6-1.4,1.4s0.6,1.4,1.4,1.4h3.4v3.9h-3.4c-0.8,0-1.4,0.6-1.4,1.4s0.6,1.4,1.4,1.4  h3.4v3.9h-3.4c-0.8,0-1.4,0.6-1.4,1.4s0.6,1.4,1.4,1.4h3.4v3.9h-3.4c-0.8,0-1.4,0.6-1.4,1.4s0.6,1.4,1.4,1.4h3.4v3.9h-3.4  c-0.8,0-1.4,0.6-1.4,1.4s0.6,1.4,1.4,1.4h3.4v3.9h-3.4c-0.8,0-1.4,0.6-1.4,1.4s0.6,1.4,1.4,1.4h3.4v3.9h-3.4c-0.8,0-1.4,0.6-1.4,1.4  s0.6,1.4,1.4,1.4h3.4v3.9h-3.4c-0.8,0-1.4,0.6-1.4,1.4s0.6,1.4,1.4,1.4h3.4V62h-3.4c-0.8,0-1.4,0.6-1.4,1.4s0.6,1.4,1.4,1.4h3.4v3.9  h-3.4c-0.8,0-1.4,0.6-1.4,1.4s0.6,1.4,1.4,1.4h3.4v3.9h-3.4c-0.8,0-1.4,0.6-1.4,1.4s0.6,1.4,1.4,1.4h3.4v3.9h-3.4  c-0.8,0-1.4,0.6-1.4,1.4s0.6,1.4,1.4,1.4h3.4v3.9h-3.4c-0.8,0-1.4,0.6-1.4,1.4s0.6,1.4,1.4,1.4h3.4V95h5.6h55.4  c4.7,0,8.4-3.8,8.4-8.4V13.4C87.1,8.8,83.3,5,78.7,5z M84.3,86.6c0,3.1-2.5,5.6-5.6,5.6H26.1V7.8h52.6c3.1,0,5.6,2.5,5.6,5.6V86.6z"></path><path d="M40.2,16.2c0,0.8-0.6,1.4-1.4,1.4h-5.6c-0.8,0-1.4-0.6-1.4-1.4s0.6-1.4,1.4-1.4h5.6C39.6,14.8,40.2,15.4,40.2,16.2z   M77.2,14.8H44.3c-0.8,0-1.4,0.6-1.4,1.4s0.6,1.4,1.4,1.4h32.9c0.8,0,1.4-0.6,1.4-1.4S78,14.8,77.2,14.8z M38.8,23.8h-5.6  c-0.8,0-1.4,0.6-1.4,1.4s0.6,1.4,1.4,1.4h5.6c0.8,0,1.4-0.6,1.4-1.4S39.6,23.8,38.8,23.8z M77.2,23.8H44.3c-0.8,0-1.4,0.6-1.4,1.4  s0.6,1.4,1.4,1.4h32.9c0.8,0,1.4-0.6,1.4-1.4S78,23.8,77.2,23.8z M38.8,32.8h-5.6c-0.8,0-1.4,0.6-1.4,1.4s0.6,1.4,1.4,1.4h5.6  c0.8,0,1.4-0.6,1.4-1.4S39.6,32.8,38.8,32.8z M77.2,32.8H44.3c-0.8,0-1.4,0.6-1.4,1.4s0.6,1.4,1.4,1.4h32.9c0.8,0,1.4-0.6,1.4-1.4  S78,32.8,77.2,32.8z M38.8,41.8h-5.6c-0.8,0-1.4,0.6-1.4,1.4s0.6,1.4,1.4,1.4h5.6c0.8,0,1.4-0.6,1.4-1.4S39.6,41.8,38.8,41.8z   M77.2,41.8H44.3c-0.8,0-1.4,0.6-1.4,1.4s0.6,1.4,1.4,1.4h32.9c0.8,0,1.4-0.6,1.4-1.4S78,41.8,77.2,41.8z"></path></svg>